<svg width="512" height="512" viewBox="0 0 512 512" fill="none" xmlns="http://www.w3.org/2000/svg">
<path d="M390.641 337.219C378.821 324.979 365.741 307.238 352.801 287.639C371.901 293.039 391.541 282.719 366.621 255.539C354.26 242.039 340.221 220.939 326.841 198.476C340.141 201.876 352.801 193.416 335.461 172.276C307.761 138.516 268.343 45.4538 268.343 45.4538C262.783 29.9341 244.723 31.894 239.943 45.4538C239.943 45.4538 197.403 143.655 172.522 171.754C158.343 187.794 167.963 197.814 180.043 198.354C166.122 221.734 151.823 243.194 140.263 254.894C118.243 277.194 137.543 290.154 156.743 287.714C143.343 308.055 130.123 325.834 119.023 336.494C77.5629 376.334 158.123 390.054 168.803 350.854C157.363 392.914 206.963 390.014 216.024 347.234C203.144 402.894 255.684 392.914 255.924 342.534C255.704 392.894 307.963 400.354 298.544 344.934C306.584 392.194 357.321 394.934 345.884 347.954C355.444 387.094 436.846 385.034 390.644 337.214L390.641 337.219Z" fill="#FADD22"/>
<path d="M256 388.879C245.86 388.879 237.64 397.1 237.64 407.239V459.1C237.64 469.24 245.86 477.459 256 477.459C266.14 477.459 274.36 469.239 274.36 459.1V407.239C274.36 397.099 266.14 388.879 256 388.879Z" fill="#FADD22"/>
</svg>
